<svg xmlns="http://www.w3.org/2000/svg" viewBox="0 0 542 242" width="542" height="242" role="img" aria-labelledby="ttl dsc" font-family="ui-monospace, SFMono-Regular, Menlo, Consolas, 'DejaVu Sans Mono', 'Noto Sans Mono CJK SC', 'Microsoft YaHei', monospace">
  <title id="ttl">变量的两个维度</title>
  <desc id="dsc">自动由 ASCII 示意图矢量化生成，源：docs/软件组/培训/C++基础/10-存储类与作用域.md 第 11-22 行</desc>
  <g transform="scale(1)">
    <rect x="0.75" y="0.75" width="100%" height="100%" rx="14" fill="#f7f9fc" stroke="#dce3ec" stroke-width="1.5"/>
    <g stroke="#8b97b5" stroke-width="1.4" stroke-linecap="round">
    <line x1="24.1" y1="50.4" x2="44.3" y2="50.4"/>
    <line x1="72.7" y1="70.6" x2="92.9" y2="70.6"/>
    <line x1="72.7" y1="90.9" x2="92.9" y2="90.9"/>
    <line x1="72.7" y1="111.1" x2="92.9" y2="111.1"/>
    <line x1="24.1" y1="151.6" x2="44.3" y2="151.6"/>
    <line x1="72.7" y1="171.9" x2="92.9" y2="171.9"/>
    <line x1="72.7" y1="192.1" x2="92.9" y2="192.1"/>
    <line x1="72.7" y1="212.4" x2="92.9" y2="212.4"/>
    <line x1="24.1" y1="40.2" x2="24.1" y2="151.6"/>
    <line x1="72.7" y1="60.5" x2="72.7" y2="111.1"/>
    <line x1="72.7" y1="161.8" x2="72.7" y2="212.4"/>
    </g>
    <g fill="#1f2430" font-size="13.5">
    <text x="20.0" y="35.8" xml:space="preserve">变</text>
    <text x="36.2" y="35.8" xml:space="preserve">量</text>
    <text x="52.4" y="35.8" xml:space="preserve">的</text>
    <text x="68.6" y="35.8" xml:space="preserve">两</text>
    <text x="84.8" y="35.8" xml:space="preserve">个</text>
    <text x="101.0" y="35.8" xml:space="preserve">维</text>
    <text x="117.2" y="35.8" xml:space="preserve">度</text>
    <text x="52.4" y="56.0" xml:space="preserve">作</text>
    <text x="68.6" y="56.0" xml:space="preserve">用</text>
    <text x="84.8" y="56.0" xml:space="preserve">域</text>
    <text x="101.0" y="56.0" xml:space="preserve">（</text>
    <text x="117.2" y="56.0" xml:space="preserve">Scope</text>
    <text x="157.7" y="56.0" xml:space="preserve">）</text>
    <text x="222.5" y="56.0" xml:space="preserve">——</text>
    <text x="246.8" y="56.0" xml:space="preserve">&quot;</text>
    <text x="254.9" y="56.0" xml:space="preserve">哪</text>
    <text x="271.1" y="56.0" xml:space="preserve">里</text>
    <text x="287.3" y="56.0" xml:space="preserve">能</text>
    <text x="303.5" y="56.0" xml:space="preserve">看</text>
    <text x="319.7" y="56.0" xml:space="preserve">见</text>
    <text x="335.9" y="56.0" xml:space="preserve">这</text>
    <text x="352.1" y="56.0" xml:space="preserve">个</text>
    <text x="368.3" y="56.0" xml:space="preserve">变</text>
    <text x="384.5" y="56.0" xml:space="preserve">量</text>
    <text x="400.7" y="56.0" xml:space="preserve">？</text>
    <text x="416.9" y="56.0" xml:space="preserve">&quot;</text>
    <text x="101.0" y="76.3" xml:space="preserve">块</text>
    <text x="117.2" y="76.3" xml:space="preserve">作</text>
    <text x="133.4" y="76.3" xml:space="preserve">用</text>
    <text x="149.6" y="76.3" xml:space="preserve">域</text>
    <text x="165.8" y="76.3" xml:space="preserve">（</text>
    <text x="182.0" y="76.3" xml:space="preserve">Block</text>
    <text x="230.6" y="76.3" xml:space="preserve">Scope</text>
    <text x="271.1" y="76.3" xml:space="preserve">）</text>
    <text x="101.0" y="96.5" xml:space="preserve">文</text>
    <text x="117.2" y="96.5" xml:space="preserve">件</text>
    <text x="133.4" y="96.5" xml:space="preserve">作</text>
    <text x="149.6" y="96.5" xml:space="preserve">用</text>
    <text x="165.8" y="96.5" xml:space="preserve">域</text>
    <text x="182.0" y="96.5" xml:space="preserve">（</text>
    <text x="198.2" y="96.5" xml:space="preserve">File</text>
    <text x="238.7" y="96.5" xml:space="preserve">Scope</text>
    <text x="279.2" y="96.5" xml:space="preserve">）</text>
    <text x="101.0" y="116.8" xml:space="preserve">函</text>
    <text x="117.2" y="116.8" xml:space="preserve">数</text>
    <text x="133.4" y="116.8" xml:space="preserve">作</text>
    <text x="149.6" y="116.8" xml:space="preserve">用</text>
    <text x="165.8" y="116.8" xml:space="preserve">域</text>
    <text x="182.0" y="116.8" xml:space="preserve">（</text>
    <text x="198.2" y="116.8" xml:space="preserve">Function</text>
    <text x="271.1" y="116.8" xml:space="preserve">Scope</text>
    <text x="311.6" y="116.8" xml:space="preserve">）</text>
    <text x="52.4" y="157.3" xml:space="preserve">生</text>
    <text x="68.6" y="157.3" xml:space="preserve">命</text>
    <text x="84.8" y="157.3" xml:space="preserve">周</text>
    <text x="101.0" y="157.3" xml:space="preserve">期</text>
    <text x="117.2" y="157.3" xml:space="preserve">（</text>
    <text x="133.4" y="157.3" xml:space="preserve">Lifetime</text>
    <text x="198.2" y="157.3" xml:space="preserve">）</text>
    <text x="222.5" y="157.3" xml:space="preserve">——</text>
    <text x="246.8" y="157.3" xml:space="preserve">&quot;</text>
    <text x="254.9" y="157.3" xml:space="preserve">这</text>
    <text x="271.1" y="157.3" xml:space="preserve">个</text>
    <text x="287.3" y="157.3" xml:space="preserve">变</text>
    <text x="303.5" y="157.3" xml:space="preserve">量</text>
    <text x="319.7" y="157.3" xml:space="preserve">能</text>
    <text x="335.9" y="157.3" xml:space="preserve">活</text>
    <text x="352.1" y="157.3" xml:space="preserve">多</text>
    <text x="368.3" y="157.3" xml:space="preserve">久</text>
    <text x="384.5" y="157.3" xml:space="preserve">？</text>
    <text x="400.7" y="157.3" xml:space="preserve">&quot;</text>
    <text x="101.0" y="177.5" xml:space="preserve">自</text>
    <text x="117.2" y="177.5" xml:space="preserve">动</text>
    <text x="133.4" y="177.5" xml:space="preserve">（</text>
    <text x="149.6" y="177.5" xml:space="preserve">Automatic</text>
    <text x="222.5" y="177.5" xml:space="preserve">）</text>
    <text x="238.7" y="177.5" xml:space="preserve">——</text>
    <text x="263.0" y="177.5" xml:space="preserve">进</text>
    <text x="279.2" y="177.5" xml:space="preserve">入</text>
    <text x="295.4" y="177.5" xml:space="preserve">作</text>
    <text x="311.6" y="177.5" xml:space="preserve">用</text>
    <text x="327.8" y="177.5" xml:space="preserve">域</text>
    <text x="344.0" y="177.5" xml:space="preserve">创</text>
    <text x="360.2" y="177.5" xml:space="preserve">建</text>
    <text x="376.4" y="177.5" xml:space="preserve">，</text>
    <text x="392.6" y="177.5" xml:space="preserve">离</text>
    <text x="408.8" y="177.5" xml:space="preserve">开</text>
    <text x="425.0" y="177.5" xml:space="preserve">销</text>
    <text x="441.2" y="177.5" xml:space="preserve">毁</text>
    <text x="101.0" y="197.8" xml:space="preserve">静</text>
    <text x="117.2" y="197.8" xml:space="preserve">态</text>
    <text x="133.4" y="197.8" xml:space="preserve">（</text>
    <text x="149.6" y="197.8" xml:space="preserve">Static</text>
    <text x="198.2" y="197.8" xml:space="preserve">）</text>
    <text x="230.6" y="197.8" xml:space="preserve">——</text>
    <text x="254.9" y="197.8" xml:space="preserve">程</text>
    <text x="271.1" y="197.8" xml:space="preserve">序</text>
    <text x="287.3" y="197.8" xml:space="preserve">启</text>
    <text x="303.5" y="197.8" xml:space="preserve">动</text>
    <text x="319.7" y="197.8" xml:space="preserve">创</text>
    <text x="335.9" y="197.8" xml:space="preserve">建</text>
    <text x="352.1" y="197.8" xml:space="preserve">，</text>
    <text x="368.3" y="197.8" xml:space="preserve">程</text>
    <text x="384.5" y="197.8" xml:space="preserve">序</text>
    <text x="400.7" y="197.8" xml:space="preserve">结</text>
    <text x="416.9" y="197.8" xml:space="preserve">束</text>
    <text x="433.1" y="197.8" xml:space="preserve">销</text>
    <text x="449.3" y="197.8" xml:space="preserve">毁</text>
    <text x="101.0" y="218.0" xml:space="preserve">动</text>
    <text x="117.2" y="218.0" xml:space="preserve">态</text>
    <text x="133.4" y="218.0" xml:space="preserve">（</text>
    <text x="149.6" y="218.0" xml:space="preserve">Dynamic</text>
    <text x="206.3" y="218.0" xml:space="preserve">）</text>
    <text x="230.6" y="218.0" xml:space="preserve">——</text>
    <text x="254.9" y="218.0" xml:space="preserve">手</text>
    <text x="271.1" y="218.0" xml:space="preserve">动</text>
    <text x="287.3" y="218.0" xml:space="preserve">分</text>
    <text x="303.5" y="218.0" xml:space="preserve">配</text>
    <text x="319.7" y="218.0" xml:space="preserve">，</text>
    <text x="335.9" y="218.0" xml:space="preserve">手</text>
    <text x="352.1" y="218.0" xml:space="preserve">动</text>
    <text x="368.3" y="218.0" xml:space="preserve">释</text>
    <text x="384.5" y="218.0" xml:space="preserve">放</text>
    <text x="400.7" y="218.0" xml:space="preserve">（</text>
    <text x="416.9" y="218.0" xml:space="preserve">malloc/free</text>
    <text x="506.0" y="218.0" xml:space="preserve">）</text>
    </g>
  </g>
</svg>
