<svg xmlns="http://www.w3.org/2000/svg" viewBox="0 0 404 445" width="404" height="445" role="img" aria-labelledby="ttl dsc" font-family="ui-monospace, SFMono-Regular, Menlo, Consolas, 'DejaVu Sans Mono', 'Noto Sans Mono CJK SC', 'Microsoft YaHei', monospace">
  <title id="ttl">STM32 MCU</title>
  <desc id="dsc">自动由 ASCII 示意图矢量化生成，源：docs/软件组/培训/嵌入式基础/01-嵌入式系统概述与HAL库.md 第 58-79 行</desc>
  <g transform="scale(1)">
    <rect x="0.75" y="0.75" width="100%" height="100%" rx="14" fill="#f7f9fc" stroke="#dce3ec" stroke-width="1.5"/>
    <g stroke="#8b97b5" stroke-width="1.4" stroke-linecap="round">
    <line x1="24.1" y1="30.1" x2="364.2" y2="30.1"/>
    <line x1="48.3" y1="70.6" x2="145.6" y2="70.6"/>
    <line x1="169.8" y1="70.6" x2="348.1" y2="70.6"/>
    <line x1="48.3" y1="131.4" x2="145.6" y2="131.4"/>
    <line x1="169.8" y1="131.4" x2="348.1" y2="131.4"/>
    <line x1="48.3" y1="171.9" x2="339.9" y2="171.9"/>
    <line x1="48.3" y1="212.4" x2="339.9" y2="212.4"/>
    <line x1="48.3" y1="252.9" x2="145.6" y2="252.9"/>
    <line x1="161.8" y1="252.9" x2="250.8" y2="252.9"/>
    <line x1="267.0" y1="252.9" x2="331.8" y2="252.9"/>
    <line x1="48.3" y1="313.6" x2="145.6" y2="313.6"/>
    <line x1="161.8" y1="313.6" x2="250.8" y2="313.6"/>
    <line x1="267.0" y1="313.6" x2="331.8" y2="313.6"/>
    <line x1="48.3" y1="333.9" x2="105.0" y2="333.9"/>
    <line x1="121.2" y1="333.9" x2="177.9" y2="333.9"/>
    <line x1="194.2" y1="333.9" x2="250.8" y2="333.9"/>
    <line x1="267.0" y1="333.9" x2="323.8" y2="333.9"/>
    <line x1="48.3" y1="394.6" x2="105.0" y2="394.6"/>
    <line x1="121.2" y1="394.6" x2="177.9" y2="394.6"/>
    <line x1="194.2" y1="394.6" x2="250.8" y2="394.6"/>
    <line x1="267.0" y1="394.6" x2="323.8" y2="394.6"/>
    <line x1="24.1" y1="414.9" x2="364.2" y2="414.9"/>
    <line x1="24.1" y1="30.1" x2="24.1" y2="414.9"/>
    <line x1="48.3" y1="70.6" x2="48.3" y2="131.4"/>
    <line x1="48.3" y1="171.9" x2="48.3" y2="212.4"/>
    <line x1="48.3" y1="252.9" x2="48.3" y2="313.6"/>
    <line x1="48.3" y1="333.9" x2="48.3" y2="394.6"/>
    <line x1="97.0" y1="131.4" x2="97.0" y2="171.9"/>
    <line x1="97.0" y1="212.4" x2="97.0" y2="252.9"/>
    <line x1="105.0" y1="333.9" x2="105.0" y2="394.6"/>
    <line x1="121.2" y1="333.9" x2="121.2" y2="394.6"/>
    <line x1="145.6" y1="70.6" x2="145.6" y2="101.0"/>
    <line x1="145.6" y1="121.2" x2="145.6" y2="131.4"/>
    <line x1="145.6" y1="252.9" x2="145.6" y2="283.2"/>
    <line x1="145.6" y1="303.5" x2="145.6" y2="313.6"/>
    <line x1="153.7" y1="101.0" x2="153.7" y2="121.2"/>
    <line x1="153.7" y1="283.2" x2="153.7" y2="303.5"/>
    <line x1="161.8" y1="252.9" x2="161.8" y2="283.2"/>
    <line x1="161.8" y1="303.5" x2="161.8" y2="313.6"/>
    <line x1="169.8" y1="70.6" x2="169.8" y2="101.0"/>
    <line x1="169.8" y1="121.2" x2="169.8" y2="131.4"/>
    <line x1="169.8" y1="283.2" x2="169.8" y2="303.5"/>
    <line x1="177.9" y1="101.0" x2="177.9" y2="121.2"/>
    <line x1="177.9" y1="333.9" x2="177.9" y2="394.6"/>
    <line x1="194.2" y1="333.9" x2="194.2" y2="394.6"/>
    <line x1="250.8" y1="252.9" x2="250.8" y2="283.2"/>
    <line x1="250.8" y1="303.5" x2="250.8" y2="313.6"/>
    <line x1="250.8" y1="333.9" x2="250.8" y2="394.6"/>
    <line x1="267.0" y1="252.9" x2="267.0" y2="313.6"/>
    <line x1="267.0" y1="333.9" x2="267.0" y2="394.6"/>
    <line x1="283.2" y1="283.2" x2="283.2" y2="303.5"/>
    <line x1="323.8" y1="333.9" x2="323.8" y2="394.6"/>
    <line x1="331.8" y1="252.9" x2="331.8" y2="283.2"/>
    <line x1="331.8" y1="303.5" x2="331.8" y2="313.6"/>
    <line x1="339.9" y1="171.9" x2="339.9" y2="182.0"/>
    <line x1="339.9" y1="202.2" x2="339.9" y2="212.4"/>
    <line x1="348.1" y1="70.6" x2="348.1" y2="101.0"/>
    <line x1="348.1" y1="121.2" x2="348.1" y2="131.4"/>
    <line x1="348.1" y1="283.2" x2="348.1" y2="303.5"/>
    <line x1="348.1" y1="323.8" x2="348.1" y2="404.8"/>
    <line x1="356.1" y1="182.0" x2="356.1" y2="202.2"/>
    <line x1="356.1" y1="242.8" x2="356.1" y2="283.2"/>
    <line x1="356.1" y1="303.5" x2="356.1" y2="323.8"/>
    <line x1="364.2" y1="30.1" x2="364.2" y2="182.0"/>
    <line x1="364.2" y1="202.2" x2="364.2" y2="242.8"/>
    <line x1="364.2" y1="404.8" x2="364.2" y2="414.9"/>
    <line x1="372.3" y1="283.2" x2="372.3" y2="303.5"/>
    <line x1="380.4" y1="101.0" x2="380.4" y2="121.2"/>
    <line x1="380.4" y1="182.0" x2="380.4" y2="202.2"/>
    </g>
    <g fill="#1f2430" font-size="13.5">
    <text x="165.8" y="56.0" xml:space="preserve">STM32</text>
    <text x="214.4" y="56.0" xml:space="preserve">MCU</text>
    <text x="60.5" y="96.5" xml:space="preserve">Cortex-M4</text>
    <text x="214.4" y="96.5" xml:space="preserve">Flash</text>
    <text x="263.0" y="96.5" xml:space="preserve">(512KB)</text>
    <text x="76.7" y="116.8" xml:space="preserve">内</text>
    <text x="92.9" y="116.8" xml:space="preserve">核</text>
    <text x="222.5" y="116.8" xml:space="preserve">程</text>
    <text x="238.7" y="116.8" xml:space="preserve">序</text>
    <text x="254.9" y="116.8" xml:space="preserve">存</text>
    <text x="271.1" y="116.8" xml:space="preserve">储</text>
    <text x="125.3" y="197.8" xml:space="preserve">总</text>
    <text x="141.5" y="197.8" xml:space="preserve">线</text>
    <text x="157.7" y="197.8" xml:space="preserve">矩</text>
    <text x="173.9" y="197.8" xml:space="preserve">阵</text>
    <text x="198.2" y="197.8" xml:space="preserve">(Bus</text>
    <text x="238.7" y="197.8" xml:space="preserve">Matrix)</text>
    <text x="60.5" y="278.8" xml:space="preserve">RAM</text>
    <text x="92.9" y="278.8" xml:space="preserve">192KB</text>
    <text x="182.0" y="278.8" xml:space="preserve">GPIO×N</text>
    <text x="279.2" y="278.8" xml:space="preserve">UART</text>
    <text x="68.6" y="299.0" xml:space="preserve">数</text>
    <text x="84.8" y="299.0" xml:space="preserve">据</text>
    <text x="101.0" y="299.0" xml:space="preserve">存</text>
    <text x="117.2" y="299.0" xml:space="preserve">储</text>
    <text x="182.0" y="299.0" xml:space="preserve">引</text>
    <text x="198.2" y="299.0" xml:space="preserve">脚</text>
    <text x="214.4" y="299.0" xml:space="preserve">控</text>
    <text x="230.6" y="299.0" xml:space="preserve">制</text>
    <text x="295.4" y="299.0" xml:space="preserve">串</text>
    <text x="311.6" y="299.0" xml:space="preserve">口</text>
    <text x="60.5" y="359.8" xml:space="preserve">SPI</text>
    <text x="133.4" y="359.8" xml:space="preserve">I2C</text>
    <text x="206.3" y="359.8" xml:space="preserve">CAN</text>
    <text x="279.2" y="359.8" xml:space="preserve">TIM</text>
    <text x="60.5" y="380.0" xml:space="preserve">...</text>
    <text x="133.4" y="380.0" xml:space="preserve">...</text>
    <text x="206.3" y="380.0" xml:space="preserve">...</text>
    <text x="279.2" y="380.0" xml:space="preserve">...</text>
    </g>
  </g>
</svg>
