<svg xmlns="http://www.w3.org/2000/svg" viewBox="0 0 469 182" width="469" height="182" role="img" aria-labelledby="ttl dsc" font-family="ui-monospace, SFMono-Regular, Menlo, Consolas, 'DejaVu Sans Mono', 'Noto Sans Mono CJK SC', 'Microsoft YaHei', monospace">
  <title id="ttl">2.3 代码如何变成运行的程序</title>
  <desc id="dsc">自动由 ASCII 示意图矢量化生成，源：docs/软件组/培训/嵌入式基础/01-嵌入式系统概述与HAL库.md 第 120-128 行</desc>
  <g transform="scale(1)">
    <rect x="0.75" y="0.75" width="100%" height="100%" rx="14" fill="#f7f9fc" stroke="#dce3ec" stroke-width="1.5"/>
    <g stroke="#8b97b5" stroke-width="1.4" stroke-linecap="round">
    <line x1="64.5" y1="131.4" x2="84.8" y2="131.4"/>
    <line x1="64.5" y1="40.2" x2="64.5" y2="131.4"/>
    <line x1="234.6" y1="40.2" x2="234.6" y2="60.5"/>
    </g>
    <g fill="#1f2430" font-size="13.5">
    <text x="20.0" y="35.8" xml:space="preserve">源</text>
    <text x="36.2" y="35.8" xml:space="preserve">文</text>
    <text x="52.4" y="35.8" xml:space="preserve">件</text>
    <text x="76.7" y="35.8" xml:space="preserve">(.c/.cpp)</text>
    <text x="165.8" y="35.8" xml:space="preserve">→</text>
    <text x="190.1" y="35.8" xml:space="preserve">交</text>
    <text x="206.3" y="35.8" xml:space="preserve">叉</text>
    <text x="222.5" y="35.8" xml:space="preserve">编</text>
    <text x="238.7" y="35.8" xml:space="preserve">译</text>
    <text x="271.1" y="35.8" xml:space="preserve">→</text>
    <text x="295.4" y="35.8" xml:space="preserve">.elf</text>
    <text x="344.0" y="35.8" xml:space="preserve">→</text>
    <text x="368.3" y="35.8" xml:space="preserve">Flash</text>
    <text x="416.9" y="35.8" xml:space="preserve">烧</text>
    <text x="433.1" y="35.8" xml:space="preserve">录</text>
    <text x="157.7" y="76.3" xml:space="preserve">arm-none-eabi-gcc</text>
    <text x="157.7" y="96.5" xml:space="preserve">生</text>
    <text x="173.9" y="96.5" xml:space="preserve">成</text>
    <text x="198.2" y="96.5" xml:space="preserve">ARM</text>
    <text x="230.6" y="96.5" xml:space="preserve">机</text>
    <text x="246.8" y="96.5" xml:space="preserve">器</text>
    <text x="263.0" y="96.5" xml:space="preserve">码</text>
    <text x="92.9" y="137.0" xml:space="preserve">注</text>
    <text x="109.1" y="137.0" xml:space="preserve">意</text>
    <text x="125.3" y="137.0" xml:space="preserve">：</text>
    <text x="141.5" y="137.0" xml:space="preserve">不</text>
    <text x="157.7" y="137.0" xml:space="preserve">是</text>
    <text x="173.9" y="137.0" xml:space="preserve">用</text>
    <text x="198.2" y="137.0" xml:space="preserve">PC</text>
    <text x="222.5" y="137.0" xml:space="preserve">上</text>
    <text x="238.7" y="137.0" xml:space="preserve">的</text>
    <text x="263.0" y="137.0" xml:space="preserve">gcc</text>
    <text x="287.3" y="137.0" xml:space="preserve">，</text>
    <text x="303.5" y="137.0" xml:space="preserve">而</text>
    <text x="319.7" y="137.0" xml:space="preserve">是</text>
    <text x="335.9" y="137.0" xml:space="preserve">交</text>
    <text x="352.1" y="137.0" xml:space="preserve">叉</text>
    <text x="368.3" y="137.0" xml:space="preserve">编</text>
    <text x="384.5" y="137.0" xml:space="preserve">译</text>
    <text x="400.7" y="137.0" xml:space="preserve">器</text>
    <text x="92.9" y="157.3" xml:space="preserve">因</text>
    <text x="109.1" y="157.3" xml:space="preserve">为</text>
    <text x="125.3" y="157.3" xml:space="preserve">目</text>
    <text x="141.5" y="157.3" xml:space="preserve">标</text>
    <text x="165.8" y="157.3" xml:space="preserve">CPU</text>
    <text x="198.2" y="157.3" xml:space="preserve">是</text>
    <text x="222.5" y="157.3" xml:space="preserve">ARM</text>
    <text x="254.9" y="157.3" xml:space="preserve">架</text>
    <text x="271.1" y="157.3" xml:space="preserve">构</text>
    <text x="287.3" y="157.3" xml:space="preserve">，</text>
    <text x="303.5" y="157.3" xml:space="preserve">不</text>
    <text x="319.7" y="157.3" xml:space="preserve">是</text>
    <text x="344.0" y="157.3" xml:space="preserve">x86</text>
    </g>
  </g>
</svg>
