<svg xmlns="http://www.w3.org/2000/svg" viewBox="0 0 753 182" width="753" height="182" role="img" aria-labelledby="ttl dsc" font-family="ui-monospace, SFMono-Regular, Menlo, Consolas, 'DejaVu Sans Mono', 'Noto Sans Mono CJK SC', 'Microsoft YaHei', monospace">
  <title id="ttl">3.4 完整通信帧</title>
  <desc id="dsc">自动由 ASCII 示意图矢量化生成，源：docs/软件组/培训/嵌入式基础/10-I2C通信原理.md 第 128-136 行</desc>
  <g transform="scale(1)">
    <rect x="0.75" y="0.75" width="100%" height="100%" rx="14" fill="#f7f9fc" stroke="#dce3ec" stroke-width="1.5"/>
    <g stroke="#8b97b5" stroke-width="1.4" stroke-linecap="round">
    <line x1="24.1" y1="30.1" x2="48.3" y2="30.1"/>
    <line x1="64.5" y1="30.1" x2="550.5" y2="30.1"/>
    <line x1="566.8" y1="30.1" x2="655.9" y2="30.1"/>
    <line x1="672.0" y1="30.1" x2="696.4" y2="30.1"/>
    <line x1="24.1" y1="90.9" x2="48.3" y2="90.9"/>
    <line x1="64.5" y1="90.9" x2="348.1" y2="90.9"/>
    <line x1="364.2" y1="90.9" x2="477.6" y2="90.9"/>
    <line x1="493.8" y1="90.9" x2="582.9" y2="90.9"/>
    <line x1="599.1" y1="90.9" x2="688.2" y2="90.9"/>
    <line x1="704.4" y1="90.9" x2="728.8" y2="90.9"/>
    <line x1="76.7" y1="111.1" x2="92.9" y2="111.1"/>
    <line x1="311.6" y1="111.1" x2="327.8" y2="111.1"/>
    <line x1="360.2" y1="111.1" x2="368.3" y2="111.1"/>
    <line x1="433.1" y1="111.1" x2="441.2" y2="111.1"/>
    <line x1="473.6" y1="111.1" x2="481.7" y2="111.1"/>
    <line x1="546.5" y1="111.1" x2="554.6" y2="111.1"/>
    <line x1="24.1" y1="30.1" x2="24.1" y2="90.9"/>
    <line x1="48.3" y1="30.1" x2="48.3" y2="90.9"/>
    <line x1="64.5" y1="30.1" x2="64.5" y2="90.9"/>
    <line x1="121.2" y1="30.1" x2="121.2" y2="90.9"/>
    <line x1="177.9" y1="30.1" x2="177.9" y2="90.9"/>
    <line x1="234.6" y1="30.1" x2="234.6" y2="90.9"/>
    <line x1="291.3" y1="30.1" x2="291.3" y2="90.9"/>
    <line x1="348.1" y1="30.1" x2="348.1" y2="90.9"/>
    <line x1="364.2" y1="80.8" x2="364.2" y2="90.9"/>
    <line x1="404.8" y1="30.1" x2="404.8" y2="80.8"/>
    <line x1="420.9" y1="80.8" x2="420.9" y2="90.9"/>
    <line x1="461.4" y1="30.1" x2="461.4" y2="80.8"/>
    <line x1="477.6" y1="80.8" x2="477.6" y2="90.9"/>
    <line x1="493.8" y1="80.8" x2="493.8" y2="90.9"/>
    <line x1="518.1" y1="30.1" x2="518.1" y2="80.8"/>
    <line x1="550.5" y1="30.1" x2="550.5" y2="90.9"/>
    <line x1="566.8" y1="30.1" x2="566.8" y2="80.8"/>
    <line x1="582.9" y1="80.8" x2="582.9" y2="90.9"/>
    <line x1="599.1" y1="80.8" x2="599.1" y2="90.9"/>
    <line x1="623.4" y1="30.1" x2="623.4" y2="80.8"/>
    <line x1="655.9" y1="30.1" x2="655.9" y2="90.9"/>
    <line x1="672.0" y1="30.1" x2="672.0" y2="80.8"/>
    <line x1="688.2" y1="80.8" x2="688.2" y2="90.9"/>
    <line x1="696.4" y1="30.1" x2="696.4" y2="80.8"/>
    <line x1="704.4" y1="80.8" x2="704.4" y2="90.9"/>
    <line x1="728.8" y1="80.8" x2="728.8" y2="90.9"/>
    </g>
    <g fill="#1f2430" font-size="13.5">
    <text x="28.1" y="56.0" xml:space="preserve">ST</text>
    <text x="68.6" y="56.0" xml:space="preserve">A6</text>
    <text x="92.9" y="56.0" xml:space="preserve">A5</text>
    <text x="125.3" y="56.0" xml:space="preserve">A4</text>
    <text x="149.6" y="56.0" xml:space="preserve">A3</text>
    <text x="182.0" y="56.0" xml:space="preserve">A2</text>
    <text x="206.3" y="56.0" xml:space="preserve">A1</text>
    <text x="238.7" y="56.0" xml:space="preserve">A0</text>
    <text x="263.0" y="56.0" xml:space="preserve">R/W</text>
    <text x="311.6" y="56.0" xml:space="preserve">ACK</text>
    <text x="360.2" y="56.0" xml:space="preserve">D7..</text>
    <text x="425.0" y="56.0" xml:space="preserve">ACK</text>
    <text x="473.6" y="56.0" xml:space="preserve">D7..</text>
    <text x="522.2" y="56.0" xml:space="preserve">ACK</text>
    <text x="578.9" y="56.0" xml:space="preserve">D7..</text>
    <text x="627.5" y="56.0" xml:space="preserve">ACK</text>
    <text x="676.1" y="56.0" xml:space="preserve">SP</text>
    <text x="28.1" y="76.3" xml:space="preserve">RT</text>
    <text x="254.9" y="76.3" xml:space="preserve">=0</text>
    <text x="368.3" y="76.3" xml:space="preserve">D0</text>
    <text x="481.7" y="76.3" xml:space="preserve">D0</text>
    <text x="587.0" y="76.3" xml:space="preserve">D0</text>
    <text x="68.6" y="116.8" xml:space="preserve">←</text>
    <text x="101.0" y="116.8" xml:space="preserve">地</text>
    <text x="117.2" y="116.8" xml:space="preserve">址</text>
    <text x="133.4" y="116.8" xml:space="preserve">帧</text>
    <text x="157.7" y="116.8" xml:space="preserve">(7-bit</text>
    <text x="214.4" y="116.8" xml:space="preserve">地</text>
    <text x="230.6" y="116.8" xml:space="preserve">址</text>
    <text x="254.9" y="116.8" xml:space="preserve">+</text>
    <text x="271.1" y="116.8" xml:space="preserve">R/W)</text>
    <text x="327.8" y="116.8" xml:space="preserve">→</text>
    <text x="352.1" y="116.8" xml:space="preserve">←</text>
    <text x="376.4" y="116.8" xml:space="preserve">数</text>
    <text x="392.6" y="116.8" xml:space="preserve">据</text>
    <text x="408.8" y="116.8" xml:space="preserve">帧</text>
    <text x="441.2" y="116.8" xml:space="preserve">→</text>
    <text x="465.5" y="116.8" xml:space="preserve">←</text>
    <text x="489.8" y="116.8" xml:space="preserve">数</text>
    <text x="506.0" y="116.8" xml:space="preserve">据</text>
    <text x="522.2" y="116.8" xml:space="preserve">帧</text>
    <text x="554.6" y="116.8" xml:space="preserve">→</text>
    <text x="570.8" y="116.8" xml:space="preserve">...</text>
    <text x="603.2" y="116.8" xml:space="preserve">←</text>
    <text x="619.4" y="116.8" xml:space="preserve">数</text>
    <text x="635.6" y="116.8" xml:space="preserve">据</text>
    <text x="651.8" y="116.8" xml:space="preserve">帧</text>
    <text x="676.1" y="116.8" xml:space="preserve">→</text>
    <text x="68.6" y="137.0" xml:space="preserve">↑</text>
    <text x="335.9" y="137.0" xml:space="preserve">↑</text>
    <text x="578.9" y="137.0" xml:space="preserve">↑</text>
    <text x="68.6" y="157.3" xml:space="preserve">Master</text>
    <text x="125.3" y="157.3" xml:space="preserve">发</text>
    <text x="141.5" y="157.3" xml:space="preserve">送</text>
    <text x="157.7" y="157.3" xml:space="preserve">，</text>
    <text x="173.9" y="157.3" xml:space="preserve">Slave</text>
    <text x="222.5" y="157.3" xml:space="preserve">应</text>
    <text x="238.7" y="157.3" xml:space="preserve">答</text>
    <text x="335.9" y="157.3" xml:space="preserve">Master</text>
    <text x="392.6" y="157.3" xml:space="preserve">发</text>
    <text x="408.8" y="157.3" xml:space="preserve">送</text>
    <text x="425.0" y="157.3" xml:space="preserve">，</text>
    <text x="441.2" y="157.3" xml:space="preserve">Slave</text>
    <text x="489.8" y="157.3" xml:space="preserve">应</text>
    <text x="506.0" y="157.3" xml:space="preserve">答</text>
    <text x="595.1" y="157.3" xml:space="preserve">STOP</text>
    </g>
  </g>
</svg>
