<svg xmlns="http://www.w3.org/2000/svg" viewBox="0 0 445 364" width="445" height="364" role="img" aria-labelledby="ttl dsc" font-family="ui-monospace, SFMono-Regular, Menlo, Consolas, 'DejaVu Sans Mono', 'Noto Sans Mono CJK SC', 'Microsoft YaHei', monospace">
  <title id="ttl">差分信号示意:</title>
  <desc id="dsc">自动由 ASCII 示意图矢量化生成，源：docs/软件组/培训/嵌入式基础/11-CAN通信原理.md 第 70-87 行</desc>
  <g transform="scale(1)">
    <rect x="0.75" y="0.75" width="100%" height="100%" rx="14" fill="#f7f9fc" stroke="#dce3ec" stroke-width="1.5"/>
    <g stroke="#8b97b5" stroke-width="1.4" stroke-linecap="round">
    <line x1="76.7" y1="70.6" x2="169.8" y2="70.6"/>
    <line x1="250.8" y1="70.6" x2="344.0" y2="70.6"/>
    <line x1="169.8" y1="111.1" x2="250.8" y2="111.1"/>
    <line x1="76.7" y1="131.4" x2="169.8" y2="131.4"/>
    <line x1="250.8" y1="131.4" x2="344.0" y2="131.4"/>
    <line x1="161.8" y1="151.6" x2="169.8" y2="151.6"/>
    <line x1="250.8" y1="151.6" x2="258.9" y2="151.6"/>
    <line x1="161.8" y1="171.9" x2="258.9" y2="171.9"/>
    <line x1="76.7" y1="192.1" x2="177.9" y2="192.1"/>
    <line x1="242.8" y1="192.1" x2="352.1" y2="192.1"/>
    <line x1="177.9" y1="232.6" x2="242.8" y2="232.6"/>
    <line x1="161.8" y1="151.6" x2="161.8" y2="171.9"/>
    <line x1="169.8" y1="70.6" x2="169.8" y2="111.1"/>
    <line x1="169.8" y1="131.4" x2="169.8" y2="151.6"/>
    <line x1="177.9" y1="192.1" x2="177.9" y2="232.6"/>
    <line x1="242.8" y1="192.1" x2="242.8" y2="232.6"/>
    <line x1="250.8" y1="70.6" x2="250.8" y2="111.1"/>
    <line x1="250.8" y1="131.4" x2="250.8" y2="151.6"/>
    <line x1="258.9" y1="151.6" x2="258.9" y2="171.9"/>
    </g>
    <g fill="#1f2430" font-size="13.5">
    <text x="20.0" y="35.8" xml:space="preserve">差</text>
    <text x="36.2" y="35.8" xml:space="preserve">分</text>
    <text x="52.4" y="35.8" xml:space="preserve">信</text>
    <text x="68.6" y="35.8" xml:space="preserve">号</text>
    <text x="84.8" y="35.8" xml:space="preserve">示</text>
    <text x="101.0" y="35.8" xml:space="preserve">意</text>
    <text x="117.2" y="35.8" xml:space="preserve">:</text>
    <text x="20.0" y="76.3" xml:space="preserve">CAN_H:</text>
    <text x="20.0" y="137.0" xml:space="preserve">CAN_L:</text>
    <text x="20.0" y="197.8" xml:space="preserve">差</text>
    <text x="36.2" y="197.8" xml:space="preserve">值</text>
    <text x="52.4" y="197.8" xml:space="preserve">:</text>
    <text x="101.0" y="258.5" xml:space="preserve">显</text>
    <text x="117.2" y="258.5" xml:space="preserve">性</text>
    <text x="133.4" y="258.5" xml:space="preserve">(0)</text>
    <text x="182.0" y="258.5" xml:space="preserve">隐</text>
    <text x="198.2" y="258.5" xml:space="preserve">性</text>
    <text x="214.4" y="258.5" xml:space="preserve">(1)</text>
    <text x="254.9" y="258.5" xml:space="preserve">显</text>
    <text x="271.1" y="258.5" xml:space="preserve">性</text>
    <text x="287.3" y="258.5" xml:space="preserve">(0)</text>
    <text x="20.0" y="299.0" xml:space="preserve">显</text>
    <text x="36.2" y="299.0" xml:space="preserve">性</text>
    <text x="52.4" y="299.0" xml:space="preserve">电</text>
    <text x="68.6" y="299.0" xml:space="preserve">平</text>
    <text x="92.9" y="299.0" xml:space="preserve">(Dominant):</text>
    <text x="190.1" y="299.0" xml:space="preserve">CAN_H</text>
    <text x="238.7" y="299.0" xml:space="preserve">-</text>
    <text x="254.9" y="299.0" xml:space="preserve">CAN_L</text>
    <text x="303.5" y="299.0" xml:space="preserve">≈</text>
    <text x="319.7" y="299.0" xml:space="preserve">2V</text>
    <text x="352.1" y="299.0" xml:space="preserve">→</text>
    <text x="368.3" y="299.0" xml:space="preserve">逻</text>
    <text x="384.5" y="299.0" xml:space="preserve">辑</text>
    <text x="408.8" y="299.0" xml:space="preserve">0</text>
    <text x="20.0" y="319.3" xml:space="preserve">隐</text>
    <text x="36.2" y="319.3" xml:space="preserve">性</text>
    <text x="52.4" y="319.3" xml:space="preserve">电</text>
    <text x="68.6" y="319.3" xml:space="preserve">平</text>
    <text x="92.9" y="319.3" xml:space="preserve">(Recessive):</text>
    <text x="198.2" y="319.3" xml:space="preserve">CAN_H</text>
    <text x="246.8" y="319.3" xml:space="preserve">-</text>
    <text x="263.0" y="319.3" xml:space="preserve">CAN_L</text>
    <text x="311.6" y="319.3" xml:space="preserve">≈</text>
    <text x="327.8" y="319.3" xml:space="preserve">0V</text>
    <text x="360.2" y="319.3" xml:space="preserve">→</text>
    <text x="376.4" y="319.3" xml:space="preserve">逻</text>
    <text x="392.6" y="319.3" xml:space="preserve">辑</text>
    <text x="416.9" y="319.3" xml:space="preserve">1</text>
    <text x="20.0" y="339.5" xml:space="preserve">重</text>
    <text x="36.2" y="339.5" xml:space="preserve">要</text>
    <text x="52.4" y="339.5" xml:space="preserve">:</text>
    <text x="68.6" y="339.5" xml:space="preserve">显</text>
    <text x="84.8" y="339.5" xml:space="preserve">性</text>
    <text x="101.0" y="339.5" xml:space="preserve">覆</text>
    <text x="117.2" y="339.5" xml:space="preserve">盖</text>
    <text x="133.4" y="339.5" xml:space="preserve">隐</text>
    <text x="149.6" y="339.5" xml:space="preserve">性</text>
    <text x="173.9" y="339.5" xml:space="preserve">→</text>
    <text x="190.1" y="339.5" xml:space="preserve">ID</text>
    <text x="214.4" y="339.5" xml:space="preserve">小</text>
    <text x="230.6" y="339.5" xml:space="preserve">的</text>
    <text x="246.8" y="339.5" xml:space="preserve">帧</text>
    <text x="263.0" y="339.5" xml:space="preserve">能</text>
    <text x="279.2" y="339.5" xml:space="preserve">&quot;</text>
    <text x="287.3" y="339.5" xml:space="preserve">赢</text>
    <text x="303.5" y="339.5" xml:space="preserve">&quot;</text>
    <text x="311.6" y="339.5" xml:space="preserve">仲</text>
    <text x="327.8" y="339.5" xml:space="preserve">裁</text>
    </g>
  </g>
</svg>
